<svg width="105" height="40" viewBox="0 0 105 40" fill="none" xmlns="http://www.w3.org/2000/svg">
<g clip-path="url(#clip0_6_7)">
<path d="M1.6 32V29.888C2.09067 29.8667 2.496 29.8027 2.816 29.696C3.15733 29.5893 3.41333 29.344 3.584 28.96C3.776 28.576 3.872 27.9573 3.872 27.104V14.848C3.872 14.272 3.88267 13.7173 3.904 13.184C3.94667 12.6507 3.97867 12.2453 4 11.968C3.65867 11.9893 3.232 12.0107 2.72 12.032C2.208 12.032 1.83467 12.0427 1.6 12.064V9.6C3.072 9.57867 4.544 9.568 6.016 9.568C7.50933 9.568 8.992 9.55733 10.464 9.536C13.024 9.51467 15.0507 9.99467 16.544 10.976C18.0587 11.936 18.7627 13.3973 18.656 15.36C18.6133 15.9787 18.4213 16.5867 18.08 17.184C17.7387 17.76 17.2267 18.2827 16.544 18.752C15.8827 19.2213 15.0507 19.5947 14.048 19.872V19.904C16.1813 20.2453 17.7493 20.96 18.752 22.048C19.7547 23.1147 20.256 24.3093 20.256 25.632C20.256 27.0187 19.9147 28.192 19.232 29.152C18.5707 30.0907 17.6533 30.8053 16.48 31.296C15.3067 31.7653 13.9733 32 12.48 32H1.6ZM8.384 29.728C8.768 29.728 9.13067 29.728 9.472 29.728C9.81333 29.728 10.1547 29.728 10.496 29.728C10.8373 29.7067 11.168 29.696 11.488 29.696C12.7893 29.632 13.7387 29.216 14.336 28.448C14.9333 27.68 15.232 26.7093 15.232 25.536C15.232 24.5547 15.0293 23.7867 14.624 23.232C14.2187 22.656 13.696 22.2507 13.056 22.016C12.4373 21.7813 11.7867 21.664 11.104 21.664C10.5707 21.664 10.112 21.664 9.728 21.664C9.344 21.664 8.93867 21.6747 8.512 21.696V26.912C8.512 27.488 8.50133 28.032 8.48 28.544C8.45867 29.056 8.42667 29.4507 8.384 29.728ZM8.512 19.424L10.176 19.392C11.072 19.3707 11.776 19.168 12.288 18.784C12.8213 18.4 13.1947 17.888 13.408 17.248C13.6427 16.5867 13.76 15.872 13.76 15.104C13.76 14.2507 13.5893 13.5893 13.248 13.12C12.9067 12.6293 12.48 12.2773 11.968 12.064C11.456 11.8507 10.9227 11.7547 10.368 11.776C10.0267 11.776 9.71733 11.8293 9.44 11.936C9.16267 12.0427 8.93867 12.288 8.768 12.672C8.59733 13.0347 8.512 13.632 8.512 14.464V19.424ZM29.9965 11.712C29.5272 11.7333 29.1218 11.7973 28.7805 11.904C28.4392 12.0107 28.1725 12.256 27.9805 12.64C27.8098 13.0027 27.7245 13.6213 27.7245 14.496V26.752C27.7245 27.328 27.7138 27.8827 27.6925 28.416C27.6712 28.9493 27.6392 29.3547 27.5965 29.632C27.9378 29.5893 28.3645 29.568 28.8765 29.568C29.4098 29.5467 29.7832 29.536 29.9965 29.536V32H20.8125V29.888C21.3032 29.8667 21.7085 29.8027 22.0285 29.696C22.3698 29.5893 22.6258 29.344 22.7965 28.96C22.9885 28.576 23.0845 27.9573 23.0845 27.104V14.848C23.0845 14.272 23.0952 13.7173 23.1165 13.184C23.1592 12.6507 23.1912 12.2453 23.2125 11.968C22.8712 11.9893 22.4445 12.0107 21.9325 12.032C21.4205 12.032 21.0472 12.0427 20.8125 12.064V9.6H29.9965V11.712ZM41.8685 32.512C39.8418 32.512 38.1138 32.1707 36.6845 31.488C35.2765 30.8053 34.1352 29.8987 33.2605 28.768C32.3858 27.616 31.7458 26.3467 31.3405 24.96C30.9352 23.5733 30.7325 22.1867 30.7325 20.8C30.7325 19.456 30.9565 18.1013 31.4045 16.736C31.8738 15.3493 32.5672 14.08 33.4845 12.928C34.4232 11.776 35.5965 10.848 37.0045 10.144C38.4125 9.44 40.0658 9.088 41.9645 9.088C43.9058 9.088 45.5805 9.44 46.9885 10.144C48.3965 10.848 49.5485 11.7867 50.4445 12.96C51.3405 14.112 52.0018 15.3707 52.4285 16.736C52.8765 18.1013 53.1005 19.456 53.1005 20.8C53.1005 22.1227 52.8658 23.4667 52.3965 24.832C51.9485 26.1973 51.2552 27.4667 50.3165 28.64C49.3992 29.792 48.2365 30.7307 46.8285 31.456C45.4205 32.16 43.7672 32.512 41.8685 32.512ZM42.2205 30.176C43.3298 30.176 44.2578 29.9093 45.0045 29.376C45.7512 28.8213 46.3485 28.1067 46.7965 27.232C47.2445 26.3573 47.5645 25.408 47.7565 24.384C47.9485 23.3387 48.0445 22.3253 48.0445 21.344C48.0445 19.872 47.9165 18.528 47.6605 17.312C47.4045 16.096 47.0098 15.0507 46.4765 14.176C45.9432 13.28 45.2605 12.5973 44.4285 12.128C43.6178 11.6373 42.6578 11.4027 41.5485 11.424C40.4605 11.4453 39.5432 11.744 38.7965 12.32C38.0498 12.8747 37.4525 13.6 37.0045 14.496C36.5565 15.3707 36.2365 16.3307 36.0445 17.376C35.8525 18.4213 35.7565 19.4347 35.7565 20.416C35.7565 21.4187 35.8632 22.4853 36.0765 23.616C36.3112 24.7467 36.6738 25.8133 37.1645 26.816C37.6552 27.8187 38.3165 28.6293 39.1485 29.248C39.9805 29.8667 41.0045 30.176 42.2205 30.176ZM63.3257 32.352C62.2591 32.352 61.3737 32.0853 60.6697 31.552C59.9657 30.9973 59.4431 30.2613 59.1017 29.344C58.7604 28.4267 58.5897 27.392 58.5897 26.24C58.5897 24.2133 58.8991 22.4 59.5177 20.8C60.1577 19.2 61.1284 17.9413 62.4297 17.024C63.7524 16.1067 65.4271 15.648 67.4537 15.648C67.6031 15.648 67.8591 15.6587 68.2217 15.68C68.5844 15.68 68.8404 15.6907 68.9897 15.712C69.0964 14.7307 69.1711 13.952 69.2137 13.376C69.2777 12.8 69.3311 12.3413 69.3737 12C69.4164 11.6587 69.4591 11.3707 69.5017 11.136C69.1604 11.1573 68.7551 11.1787 68.2857 11.2C67.8377 11.2 67.4964 11.2107 67.2617 11.232L67.3897 8.8C68.3924 8.8 69.2244 8.74667 69.8857 8.64C70.5471 8.53333 71.0697 8.40533 71.4537 8.256C71.8591 8.10667 72.1364 7.968 72.2857 7.84H74.0138C73.8218 9.54667 73.6191 11.2533 73.4057 12.96C73.2137 14.6667 73.0217 16.3733 72.8297 18.08C72.6804 19.5307 72.5204 20.928 72.3497 22.272C72.1791 23.616 72.0404 24.8213 71.9337 25.888C71.8271 26.9547 71.7737 27.808 71.7737 28.448C71.7737 28.832 71.8271 29.088 71.9337 29.216C72.0404 29.3227 72.1471 29.376 72.2537 29.376C72.4884 29.376 72.7337 29.1947 72.9897 28.832C73.2457 28.4693 73.5124 27.808 73.7897 26.848L75.5497 27.36C75.4644 27.808 75.3151 28.32 75.1017 28.896C74.8884 29.472 74.6111 30.0267 74.2697 30.56C73.9284 31.072 73.5017 31.4987 72.9897 31.84C72.4991 32.1813 71.9017 32.352 71.1977 32.352C70.5151 32.352 69.9177 32.1493 69.4057 31.744C68.8937 31.3387 68.6377 30.5707 68.6377 29.44C68.6377 29.0133 68.6484 28.6827 68.6697 28.448C68.6911 28.192 68.7231 27.8827 68.7657 27.52H68.7337C68.2217 28.7787 67.6564 29.76 67.0377 30.464C66.4191 31.168 65.7897 31.6587 65.1497 31.936C64.5097 32.2133 63.9017 32.352 63.3257 32.352ZM64.5097 29.44C65.0431 29.44 65.5231 29.1733 65.9497 28.64C66.3977 28.1067 66.7924 27.3707 67.1337 26.432C67.4964 25.472 67.8057 24.3733 68.0617 23.136C68.2111 22.368 68.3391 21.5573 68.4457 20.704C68.5524 19.8293 68.6484 18.9333 68.7337 18.016C68.5844 17.952 68.3177 17.8987 67.9337 17.856C67.5497 17.792 67.2511 17.76 67.0377 17.76C66.3124 17.76 65.7044 17.9733 65.2137 18.4C64.7231 18.8053 64.3284 19.3387 64.0297 20C63.7311 20.6613 63.4964 21.376 63.3257 22.144C63.1764 22.912 63.0697 23.6587 63.0057 24.384C62.9631 25.088 62.9417 25.696 62.9417 26.208C62.9417 27.296 63.0804 28.1067 63.3577 28.64C63.6564 29.1733 64.0404 29.44 64.5097 29.44ZM83.1163 15.648C84.0549 15.648 84.8869 15.7867 85.6123 16.064C86.3376 16.3413 86.9029 16.7787 87.3083 17.376C87.7136 17.9733 87.9163 18.7413 87.9163 19.68C87.9163 20.5547 87.6496 21.3013 87.1163 21.92C86.6043 22.5173 85.9216 23.008 85.0683 23.392C84.2363 23.776 83.3189 24.096 82.3163 24.352C81.3136 24.5867 80.3429 24.768 79.4043 24.896C79.4043 26.112 79.5429 27.0507 79.8203 27.712C80.1189 28.352 80.4923 28.8 80.9403 29.056C81.3883 29.2907 81.8363 29.408 82.2843 29.408C82.6469 29.408 83.0736 29.344 83.5642 29.216C84.0763 29.0667 84.5883 28.768 85.1003 28.32C85.6123 27.872 86.0603 27.2107 86.4443 26.336L88.2363 27.2C87.6389 28.5867 86.9669 29.6533 86.2203 30.4C85.4736 31.1467 84.6949 31.6587 83.8843 31.936C83.0736 32.2133 82.2523 32.352 81.4203 32.352C79.4576 32.3733 77.9003 31.808 76.7483 30.656C75.5963 29.504 75.0203 27.744 75.0203 25.376C75.0203 24.352 75.1803 23.2747 75.5003 22.144C75.8203 21.0133 76.3003 19.9573 76.9403 18.976C77.6016 17.9947 78.4443 17.1947 79.4683 16.576C80.4923 15.9573 81.7083 15.648 83.1163 15.648ZM82.7643 17.76C82.0389 17.76 81.4523 18.016 81.0043 18.528C80.5563 19.04 80.2149 19.6907 79.9803 20.48C79.7456 21.248 79.5856 22.0267 79.5003 22.816C80.6523 22.6027 81.5696 22.3147 82.2523 21.952C82.9349 21.5893 83.4256 21.1733 83.7243 20.704C84.0443 20.2347 84.1936 19.744 84.1723 19.232C84.1509 18.6987 83.9909 18.3253 83.6923 18.112C83.3936 17.8773 83.0843 17.76 82.7643 17.76ZM99.1395 15.648C99.8222 15.648 100.42 15.808 100.932 16.128C101.465 16.4267 101.902 16.8427 102.244 17.376C102.606 17.9093 102.873 18.528 103.044 19.232C103.236 19.936 103.332 20.6827 103.332 21.472C103.332 22.5813 103.14 23.7653 102.756 25.024C102.372 26.2827 101.806 27.4667 101.06 28.576C100.334 29.6853 99.4382 30.592 98.3715 31.296C97.3262 32 96.1315 32.352 94.7875 32.352C93.8275 32.352 93.0488 32.1493 92.4515 31.744C91.8542 31.3387 91.4168 30.7627 91.1395 30.016C90.8622 29.2693 90.7235 28.384 90.7235 27.36C90.7235 26.8053 90.7448 26.1653 90.7875 25.44C90.8515 24.6933 90.9155 23.936 90.9795 23.168C91.0435 22.4 91.0968 21.6853 91.1395 21.024C91.2035 20.3627 91.2355 19.84 91.2355 19.456C91.2355 19.0933 91.1715 18.8693 91.0435 18.784C90.9368 18.6773 90.8302 18.624 90.7235 18.624C90.4888 18.624 90.2435 18.8053 89.9875 19.168C89.7315 19.5307 89.4648 20.192 89.1875 21.152L87.4595 20.64C87.5448 20.192 87.7048 19.68 87.9395 19.104C88.1955 18.528 88.5262 17.984 88.9315 17.472C89.3368 16.9387 89.8168 16.5013 90.3715 16.16C90.9262 15.8187 91.5662 15.648 92.2915 15.648C93.1235 15.648 93.7528 15.8187 94.1795 16.16C94.6275 16.5013 94.9368 16.9493 95.1075 17.504C95.2782 18.0587 95.3635 18.6773 95.3635 19.36C95.3635 20.0427 95.3315 20.7893 95.2675 21.6C95.2248 22.4107 95.1608 23.232 95.0755 24.064C94.9902 24.8747 94.9155 25.632 94.8515 26.336C94.8088 27.04 94.7875 27.6373 94.7875 28.128C94.7875 28.3413 94.8088 28.5973 94.8515 28.896C94.9155 29.1733 95.0222 29.4187 95.1715 29.632C95.3422 29.8453 95.5982 29.952 95.9395 29.952C96.5155 29.9307 97.0915 29.7067 97.6675 29.28C98.2648 28.8533 98.8088 28.2667 99.2995 27.52C99.8115 26.7733 100.217 25.9093 100.516 24.928C100.814 23.9253 100.964 22.8693 100.964 21.76C100.964 21.5253 100.942 21.2907 100.9 21.056C100.857 20.8 100.793 20.5653 100.708 20.352C100.644 20.1173 100.558 19.9147 100.452 19.744C100.366 19.552 100.27 19.4027 100.164 19.296C99.9715 19.4453 99.7475 19.584 99.4915 19.712C99.2568 19.8187 98.9902 19.872 98.6915 19.872C98.2648 19.872 97.8275 19.7227 97.3795 19.424C96.9315 19.104 96.7075 18.592 96.7075 17.888C96.7075 17.5893 96.7822 17.2693 96.9315 16.928C97.0808 16.5653 97.3368 16.2667 97.6995 16.032C98.0622 15.776 98.5422 15.648 99.1395 15.648Z" fill="black"/>
<path d="M55.569 32.512C54.8863 32.512 54.321 32.2667 53.873 31.776C53.4463 31.2853 53.233 30.6987 53.233 30.016C53.233 29.3333 53.4677 28.7467 53.937 28.256C54.4063 27.7653 54.9503 27.52 55.569 27.52C56.2303 27.52 56.7743 27.7653 57.201 28.256C57.649 28.7467 57.873 29.3333 57.873 30.016C57.873 30.6987 57.6597 31.2853 57.233 31.776C56.8277 32.2667 56.273 32.512 55.569 32.512Z" fill="#FF6C22"/>
</g>
<defs>
<clipPath id="clip0_6_7">
<rect width="105" height="40" fill="white"/>
</clipPath>
</defs>
</svg>
