<svg width="103" height="26" viewBox="0 0 103 26" fill="none" xmlns="http://www.w3.org/2000/svg">
<path d="M0.6 25V22.888C1.09067 22.8667 1.496 22.8027 1.816 22.696C2.15733 22.5893 2.41333 22.344 2.584 21.96C2.776 21.576 2.872 20.9573 2.872 20.104V7.848C2.872 7.272 2.88267 6.71733 2.904 6.184C2.94667 5.65067 2.97867 5.24533 3 4.968C2.65867 4.98933 2.232 5.01067 1.72 5.032C1.208 5.032 0.834667 5.04267 0.6 5.064V2.6C2.072 2.57867 3.544 2.568 5.016 2.568C6.50933 2.568 7.992 2.55733 9.464 2.536C12.024 2.51467 14.0507 2.99467 15.544 3.976C17.0587 4.936 17.7627 6.39733 17.656 8.36C17.6133 8.97867 17.4213 9.58667 17.08 10.184C16.7387 10.76 16.2267 11.2827 15.544 11.752C14.8827 12.2213 14.0507 12.5947 13.048 12.872V12.904C15.1813 13.2453 16.7493 13.96 17.752 15.048C18.7547 16.1147 19.256 17.3093 19.256 18.632C19.256 20.0187 18.9147 21.192 18.232 22.152C17.5707 23.0907 16.6533 23.8053 15.48 24.296C14.3067 24.7653 12.9733 25 11.48 25H0.6ZM7.384 22.728C7.768 22.728 8.13067 22.728 8.472 22.728C8.81333 22.728 9.15467 22.728 9.496 22.728C9.83733 22.7067 10.168 22.696 10.488 22.696C11.7893 22.632 12.7387 22.216 13.336 21.448C13.9333 20.68 14.232 19.7093 14.232 18.536C14.232 17.5547 14.0293 16.7867 13.624 16.232C13.2187 15.656 12.696 15.2507 12.056 15.016C11.4373 14.7813 10.7867 14.664 10.104 14.664C9.57067 14.664 9.112 14.664 8.728 14.664C8.344 14.664 7.93867 14.6747 7.512 14.696V19.912C7.512 20.488 7.50133 21.032 7.48 21.544C7.45867 22.056 7.42667 22.4507 7.384 22.728ZM7.512 12.424L9.176 12.392C10.072 12.3707 10.776 12.168 11.288 11.784C11.8213 11.4 12.1947 10.888 12.408 10.248C12.6427 9.58667 12.76 8.872 12.76 8.104C12.76 7.25067 12.5893 6.58933 12.248 6.12C11.9067 5.62933 11.48 5.27733 10.968 5.064C10.456 4.85067 9.92267 4.75467 9.368 4.776C9.02667 4.776 8.71733 4.82933 8.44 4.936C8.16267 5.04267 7.93867 5.288 7.768 5.672C7.59733 6.03467 7.512 6.632 7.512 7.464V12.424ZM28.9965 4.712C28.5272 4.73333 28.1218 4.79733 27.7805 4.904C27.4392 5.01067 27.1725 5.256 26.9805 5.64C26.8098 6.00267 26.7245 6.62133 26.7245 7.496V19.752C26.7245 20.328 26.7138 20.8827 26.6925 21.416C26.6712 21.9493 26.6392 22.3547 26.5965 22.632C26.9378 22.5893 27.3645 22.568 27.8765 22.568C28.4098 22.5467 28.7832 22.536 28.9965 22.536V25H19.8125V22.888C20.3032 22.8667 20.7085 22.8027 21.0285 22.696C21.3698 22.5893 21.6258 22.344 21.7965 21.96C21.9885 21.576 22.0845 20.9573 22.0845 20.104V7.848C22.0845 7.272 22.0952 6.71733 22.1165 6.184C22.1592 5.65067 22.1912 5.24533 22.2125 4.968C21.8712 4.98933 21.4445 5.01067 20.9325 5.032C20.4205 5.032 20.0472 5.04267 19.8125 5.064V2.6H28.9965V4.712ZM40.8685 25.512C38.8418 25.512 37.1138 25.1707 35.6845 24.488C34.2765 23.8053 33.1352 22.8987 32.2605 21.768C31.3858 20.616 30.7458 19.3467 30.3405 17.96C29.9352 16.5733 29.7325 15.1867 29.7325 13.8C29.7325 12.456 29.9565 11.1013 30.4045 9.736C30.8738 8.34933 31.5672 7.08 32.4845 5.928C33.4232 4.776 34.5965 3.848 36.0045 3.144C37.4125 2.44 39.0658 2.088 40.9645 2.088C42.9058 2.088 44.5805 2.44 45.9885 3.144C47.3965 3.848 48.5485 4.78667 49.4445 5.96C50.3405 7.112 51.0018 8.37067 51.4285 9.736C51.8765 11.1013 52.1005 12.456 52.1005 13.8C52.1005 15.1227 51.8658 16.4667 51.3965 17.832C50.9485 19.1973 50.2552 20.4667 49.3165 21.64C48.3992 22.792 47.2365 23.7307 45.8285 24.456C44.4205 25.16 42.7672 25.512 40.8685 25.512ZM41.2205 23.176C42.3298 23.176 43.2578 22.9093 44.0045 22.376C44.7512 21.8213 45.3485 21.1067 45.7965 20.232C46.2445 19.3573 46.5645 18.408 46.7565 17.384C46.9485 16.3387 47.0445 15.3253 47.0445 14.344C47.0445 12.872 46.9165 11.528 46.6605 10.312C46.4045 9.096 46.0098 8.05067 45.4765 7.176C44.9432 6.28 44.2605 5.59733 43.4285 5.128C42.6178 4.63733 41.6578 4.40267 40.5485 4.424C39.4605 4.44533 38.5432 4.744 37.7965 5.32C37.0498 5.87467 36.4525 6.6 36.0045 7.496C35.5565 8.37067 35.2365 9.33067 35.0445 10.376C34.8525 11.4213 34.7565 12.4347 34.7565 13.416C34.7565 14.4187 34.8632 15.4853 35.0765 16.616C35.3112 17.7467 35.6738 18.8133 36.1645 19.816C36.6552 20.8187 37.3165 21.6293 38.1485 22.248C38.9805 22.8667 40.0045 23.176 41.2205 23.176ZM62.3257 25.352C61.2591 25.352 60.3737 25.0853 59.6697 24.552C58.9657 23.9973 58.4431 23.2613 58.1017 22.344C57.7604 21.4267 57.5897 20.392 57.5897 19.24C57.5897 17.2133 57.8991 15.4 58.5177 13.8C59.1577 12.2 60.1284 10.9413 61.4297 10.024C62.7524 9.10667 64.4271 8.648 66.4537 8.648C66.6031 8.648 66.8591 8.65867 67.2217 8.68C67.5844 8.68 67.8404 8.69067 67.9897 8.712C68.0964 7.73067 68.1711 6.952 68.2137 6.376C68.2777 5.8 68.3311 5.34133 68.3737 5C68.4164 4.65867 68.4591 4.37067 68.5017 4.136C68.1604 4.15733 67.7551 4.17867 67.2857 4.2C66.8377 4.2 66.4964 4.21067 66.2617 4.232L66.3897 1.8C67.3924 1.8 68.2244 1.74667 68.8857 1.64C69.5471 1.53333 70.0697 1.40533 70.4537 1.256C70.8591 1.10667 71.1364 0.967999 71.2857 0.839998H73.0138C72.8218 2.54667 72.6191 4.25333 72.4057 5.96C72.2137 7.66667 72.0217 9.37333 71.8297 11.08C71.6804 12.5307 71.5204 13.928 71.3497 15.272C71.1791 16.616 71.0404 17.8213 70.9337 18.888C70.8271 19.9547 70.7737 20.808 70.7737 21.448C70.7737 21.832 70.8271 22.088 70.9337 22.216C71.0404 22.3227 71.1471 22.376 71.2537 22.376C71.4884 22.376 71.7337 22.1947 71.9897 21.832C72.2457 21.4693 72.5124 20.808 72.7897 19.848L74.5497 20.36C74.4644 20.808 74.3151 21.32 74.1017 21.896C73.8884 22.472 73.6111 23.0267 73.2697 23.56C72.9284 24.072 72.5017 24.4987 71.9897 24.84C71.4991 25.1813 70.9017 25.352 70.1977 25.352C69.5151 25.352 68.9177 25.1493 68.4057 24.744C67.8937 24.3387 67.6377 23.5707 67.6377 22.44C67.6377 22.0133 67.6484 21.6827 67.6697 21.448C67.6911 21.192 67.7231 20.8827 67.7657 20.52H67.7337C67.2217 21.7787 66.6564 22.76 66.0377 23.464C65.4191 24.168 64.7897 24.6587 64.1497 24.936C63.5097 25.2133 62.9017 25.352 62.3257 25.352ZM63.5097 22.44C64.0431 22.44 64.5231 22.1733 64.9497 21.64C65.3977 21.1067 65.7924 20.3707 66.1337 19.432C66.4964 18.472 66.8057 17.3733 67.0617 16.136C67.2111 15.368 67.3391 14.5573 67.4457 13.704C67.5524 12.8293 67.6484 11.9333 67.7337 11.016C67.5844 10.952 67.3177 10.8987 66.9337 10.856C66.5497 10.792 66.2511 10.76 66.0377 10.76C65.3124 10.76 64.7044 10.9733 64.2137 11.4C63.7231 11.8053 63.3284 12.3387 63.0297 13C62.7311 13.6613 62.4964 14.376 62.3257 15.144C62.1764 15.912 62.0697 16.6587 62.0057 17.384C61.9631 18.088 61.9417 18.696 61.9417 19.208C61.9417 20.296 62.0804 21.1067 62.3577 21.64C62.6564 22.1733 63.0404 22.44 63.5097 22.44ZM82.1163 8.648C83.0549 8.648 83.8869 8.78667 84.6123 9.064C85.3376 9.34133 85.9029 9.77867 86.3083 10.376C86.7136 10.9733 86.9163 11.7413 86.9163 12.68C86.9163 13.5547 86.6496 14.3013 86.1163 14.92C85.6043 15.5173 84.9216 16.008 84.0683 16.392C83.2363 16.776 82.3189 17.096 81.3163 17.352C80.3136 17.5867 79.3429 17.768 78.4043 17.896C78.4043 19.112 78.5429 20.0507 78.8203 20.712C79.1189 21.352 79.4923 21.8 79.9403 22.056C80.3883 22.2907 80.8363 22.408 81.2843 22.408C81.6469 22.408 82.0736 22.344 82.5642 22.216C83.0763 22.0667 83.5883 21.768 84.1003 21.32C84.6123 20.872 85.0603 20.2107 85.4443 19.336L87.2363 20.2C86.6389 21.5867 85.9669 22.6533 85.2203 23.4C84.4736 24.1467 83.6949 24.6587 82.8843 24.936C82.0736 25.2133 81.2523 25.352 80.4203 25.352C78.4576 25.3733 76.9003 24.808 75.7483 23.656C74.5963 22.504 74.0203 20.744 74.0203 18.376C74.0203 17.352 74.1803 16.2747 74.5003 15.144C74.8203 14.0133 75.3003 12.9573 75.9403 11.976C76.6016 10.9947 77.4443 10.1947 78.4683 9.576C79.4923 8.95733 80.7083 8.648 82.1163 8.648ZM81.7643 10.76C81.0389 10.76 80.4523 11.016 80.0043 11.528C79.5563 12.04 79.2149 12.6907 78.9803 13.48C78.7456 14.248 78.5856 15.0267 78.5003 15.816C79.6523 15.6027 80.5696 15.3147 81.2523 14.952C81.9349 14.5893 82.4256 14.1733 82.7243 13.704C83.0443 13.2347 83.1936 12.744 83.1723 12.232C83.1509 11.6987 82.9909 11.3253 82.6923 11.112C82.3936 10.8773 82.0843 10.76 81.7643 10.76ZM98.1395 8.648C98.8222 8.648 99.4195 8.808 99.9315 9.128C100.465 9.42667 100.902 9.84267 101.244 10.376C101.606 10.9093 101.873 11.528 102.044 12.232C102.236 12.936 102.332 13.6827 102.332 14.472C102.332 15.5813 102.14 16.7653 101.756 18.024C101.372 19.2827 100.806 20.4667 100.06 21.576C99.3342 22.6853 98.4382 23.592 97.3715 24.296C96.3262 25 95.1315 25.352 93.7875 25.352C92.8275 25.352 92.0488 25.1493 91.4515 24.744C90.8542 24.3387 90.4168 23.7627 90.1395 23.016C89.8622 22.2693 89.7235 21.384 89.7235 20.36C89.7235 19.8053 89.7448 19.1653 89.7875 18.44C89.8515 17.6933 89.9155 16.936 89.9795 16.168C90.0435 15.4 90.0968 14.6853 90.1395 14.024C90.2035 13.3627 90.2355 12.84 90.2355 12.456C90.2355 12.0933 90.1715 11.8693 90.0435 11.784C89.9368 11.6773 89.8302 11.624 89.7235 11.624C89.4888 11.624 89.2435 11.8053 88.9875 12.168C88.7315 12.5307 88.4648 13.192 88.1875 14.152L86.4595 13.64C86.5448 13.192 86.7048 12.68 86.9395 12.104C87.1955 11.528 87.5262 10.984 87.9315 10.472C88.3368 9.93867 88.8168 9.50133 89.3715 9.16C89.9262 8.81867 90.5662 8.648 91.2915 8.648C92.1235 8.648 92.7528 8.81867 93.1795 9.16C93.6275 9.50133 93.9368 9.94933 94.1075 10.504C94.2782 11.0587 94.3635 11.6773 94.3635 12.36C94.3635 13.0427 94.3315 13.7893 94.2675 14.6C94.2248 15.4107 94.1608 16.232 94.0755 17.064C93.9902 17.8747 93.9155 18.632 93.8515 19.336C93.8088 20.04 93.7875 20.6373 93.7875 21.128C93.7875 21.3413 93.8088 21.5973 93.8515 21.896C93.9155 22.1733 94.0222 22.4187 94.1715 22.632C94.3422 22.8453 94.5982 22.952 94.9395 22.952C95.5155 22.9307 96.0915 22.7067 96.6675 22.28C97.2648 21.8533 97.8088 21.2667 98.2995 20.52C98.8115 19.7733 99.2168 18.9093 99.5155 17.928C99.8142 16.9253 99.9635 15.8693 99.9635 14.76C99.9635 14.5253 99.9422 14.2907 99.8995 14.056C99.8568 13.8 99.7928 13.5653 99.7075 13.352C99.6435 13.1173 99.5582 12.9147 99.4515 12.744C99.3662 12.552 99.2702 12.4027 99.1635 12.296C98.9715 12.4453 98.7475 12.584 98.4915 12.712C98.2568 12.8187 97.9902 12.872 97.6915 12.872C97.2648 12.872 96.8275 12.7227 96.3795 12.424C95.9315 12.104 95.7075 11.592 95.7075 10.888C95.7075 10.5893 95.7822 10.2693 95.9315 9.928C96.0808 9.56533 96.3368 9.26667 96.6995 9.032C97.0622 8.776 97.5422 8.648 98.1395 8.648Z" fill="white"/>
<path d="M54.569 25.512C53.8863 25.512 53.321 25.2667 52.873 24.776C52.4463 24.2853 52.233 23.6987 52.233 23.016C52.233 22.3333 52.4677 21.7467 52.937 21.256C53.4063 20.7653 53.9503 20.52 54.569 20.52C55.2303 20.52 55.7743 20.7653 56.201 21.256C56.649 21.7467 56.873 22.3333 56.873 23.016C56.873 23.6987 56.6597 24.2853 56.233 24.776C55.8277 25.2667 55.273 25.512 54.569 25.512Z" fill="#FF6C22"/>
</svg>
